<?xml version="1.0" encoding="UTF-8"?>
<svg xmlns="http://www.w3.org/2000/svg" xmlns:xlink="http://www.w3.org/1999/xlink" viewBox="0 0 48 48" width="48px" height="48px">
<g id="surface47059956">
<path style=" stroke:none;fill-rule:nonzero;fill:rgb(18.039216%,80.000001%,44.313726%);fill-opacity:1;" d="M 24 4 C 12.976562 4 4 12.976562 4 24 C 4 35.023438 12.976562 44 24 44 C 35.023438 44 44 35.023438 44 24 C 44 12.976562 35.023438 4 24 4 Z M 24 8 C 32.859375 8 40 15.140625 40 24 C 40 32.859375 32.859375 40 24 40 C 15.140625 40 8 32.859375 8 24 C 8 15.140625 15.140625 8 24 8 Z M 24 12 C 17.371094 12 12 17.371094 12 24 C 12 30.628906 17.371094 36 24 36 C 30.628906 36 36 30.628906 36 24 C 36 22.464844 35.699219 21.003906 35.175781 19.652344 L 24 30.828125 L 16.585938 23.414062 L 19.414062 20.585938 L 24 25.171875 L 33.042969 16.128906 C 30.84375 13.605469 27.613281 12 24 12 Z M 24 12 "/>
</g>
</svg>
